<svg id="Layer_1" data-name="Layer 1" xmlns="http://www.w3.org/2000/svg" viewBox="0 0 2998.6 2251.9"><defs><style>.cls-4{fill:#cfb66c}.cls-24,.cls-32,.cls-4,.cls-53,.cls-6,.cls-65,.cls-66,.cls-85,.cls-90,.cls-92{fill-rule:evenodd}.cls-6{fill:#f1d789}.cls-24{fill:#caa13e}.cls-32{fill:#a88f33}.cls-53{fill:#8c6228}.cls-65{fill:#585136}.cls-66{fill:#252211}.cls-85{fill:#6e6342}.cls-90{fill:#82764f}.cls-92{fill:#574f35}</style></defs><path d="M1499.3 188.4a937.5 937.5 0 1 1 0 1875 937.5 937.5 0 0 1 0-1875" fill="#988430"/><path d="M1499.3 218.5a907.5 907.5 0 1 1 0 1815 907.5 907.5 0 1 1 0-1815" fill="#7a6a2a"/><path d="M1499.3 237.6a888.3 888.3 0 1 1 0 1776.7 888.3 888.3 0 0 1 0-1776.7" fill="#ba9f33"/><path class="cls-4" d="M971.7 1025.8c-5.3-4.8-11-9.7-16.1-14.5l-15.8-14.6-15.8-15c-2.5-2.6-5.3-4.8-7.9-7.4L908 967c-21-19.8-42-39.7-62.7-59.6 21.4 19.6 42.3 39 63.7 58.9l7.5 7.4c2.5 2.6 5.3 4.9 7.8 7.5l15.8 14.5c5.3 4.9 10.5 9.7 15.8 15s10.5 10.2 15.8 15Zm-278-3s76.2 8 113.4 13.2a23994 23994 0 0 1 142.1 21.4Zm0 0a2789 2789 0 0 1 64.2 6.4c11 1 21.4 2.3 31.9 3.3l16 1.9 15.8 2.2 63.8 10.2 31.8 5.3c10.5 1.8 21 3.8 31.9 5.6a754 754 0 0 1-31.9-4l-31.8-4.6-63.8-9.4c-5.3-.8-10.4-1.9-15.7-2.6l-16.1-1.9c-10.5-1-21.4-2.5-31.9-3.8a1764 1764 0 0 1-64.2-8.6Zm248 54.4s-81.4 20.7-108.8 28.6c-27 7.4-108.8 32.3-108.8 32.3l217.5-60.8Z"/><path class="cls-4" d="M941.6 1077.3c-18 5.3-36 10.4-54.3 15.3L833 1107c-18 5.4-36 10.5-54 15.8l-27 7.4c-9 2.6-18 4.9-27.3 7.5 9-3 18-6 27-8.7l27-8.6 54-16.5c18.4-4.6 36.4-9.4 54.8-13.8 17.4-4.4 35.8-8.8 54.1-13Zm-206.1 110.9a8430 8430 0 0 0 136-62.7c12-5.6 47-18 47-18Z"/><path class="cls-4" d="M735.5 1188.2c7.9-3 15.3-6.7 22.9-10.2l22.4-10.5 45-21.7c15-7.1 29.7-15 45.1-21.7 8-3.3 15.8-6 23.7-8.6l12-3.8c4-1 7.9-2.3 12-3.3-15 7-30.8 13.2-45.8 20.1-15 7.5-30.3 13.5-45.8 20.2l-45.8 20.2c-15.4 6.2-30.4 12.9-45.7 19.3Zm10 42s93.4-54.8 125.6-72.4c16.8-9.4 71.3-36.4 71.3-36.4Z"/><path class="cls-4" d="m745.5 1230.2 48-29.6 24-14.6 24.3-14.2c8.2-4.9 16.1-9.7 24.5-14.3a85.8 85.8 0 0 1 12.4-6.4l12.7-6.3c16.9-8.2 33.7-16.6 51.5-23.7-16.1 10.2-32.6 18.8-49.2 27.8-8.2 4.5-16.5 8.6-24.7 13.2s-16 9.4-24.4 13.8c-8.2 4.8-16.1 9.4-24.5 13.8l-24.7 13.5-49.9 27Zm196.1-96.8s-58 44.6-76.9 58.8-74.2 54.3-74.2 54.3Z"/><path fill="#e2cc85" fill-rule="evenodd" d="m1275.1 1493.1-29.8-56.3 17.3-70.4 123.4-47.6-52.5-107.7 25.9-108.8 48.7-97.4 150.5-23.7 110.6-105.4 238.8 18.1 46.8 255.3-90.2 321.4-51.4 166.4-208.5 7.9-96.8-67-113.3-47.4-119.5-37.4z"/><path class="cls-6" d="M1640.7 1491.2s-28.9 13.2-78 10.2c-14.3-19.1-114-28-114-28s-12.4-3.8-34.4 5.3-43 7.8-62.6 12.7-39-20.6-54-26c-15-5.6-34.9-19-34.9-19l-42-4.2-84.3-35.6-134-133.5-36.5 57-11.2 70.5 40.5 83.6 109.1 99.4 212.7 54 126-37.1 158-66.8 39.6-42.5Z"/><path fill="#f4ecb4" fill-rule="evenodd" d="m885.1 1019.5 27-81.8 32.1-52.8 103.6-8.6-31.1 90.7-86.6 154.1 36 137.6-63.7 31.8-19.6-30-15.8-68.9-1.1-77.3 19.2-94.8z"/><path d="m1001.3 1485.6-20-27.7s-5.2-13.2-2.2-24.8c3-11.6 2.6-12.4 1-16.8s-14.2-19.6-13.4-32.6c.7-13.2-1-17.6 8.6-28 10.2-10.2 7.1-27.8 7.1-27.8l13.2 8.2 3-4.6s4.9 3.8 4.9 9.7c1-8.2-3.3-46.1 6.7-54.7s27.7 40.5 27.7 40.5l-10.9-71.3-28-73.2-50-66.7-3-73.6v-6.4s-23 35.2-29.3 63c-4.5 19.2 6.4 42.4 4.1 69.8-1.8 27.3-4 25.2 2.6 36s22.9 33 16.5 49.2c-5.6 13.8-24.7 4-24.7 4s-3.8 11.3-9 15.4a34 34 0 0 0-7.4-15c-.3 2.6-1 6-1 6s-3.4-10.4-6.8-23.6c-4.5-17.6-9.4-40.8-13.8-53.2-1.8 7-6.3 28.8-6.3 28.8l2.5 33.3 12.6 45.9 12 30 11.7 36.7 10.1 24.6 8.2 18.8 7.1 42.4 34.5 36.4 18.3 8.2 13.4-6.9Z" fill="#f3e19d" fill-rule="evenodd"/><path d="M903.1 952.7s-24.7 42-31.9 84.3-13.5 87.1-9 144.8a599.4 599.4 0 0 0 20.2 119.2c12 42.3 43.1 101.2 43.1 101.2l1-2.3a159.4 159.4 0 0 1-12.4-31c-4-16.2-5.6-35.3-9.4-44-3.3-8.6-9-16-11.7-26.6-2.5-10.2-3-26.3-10.9-38.2a77.5 77.5 0 0 1-8.6-30.4c-1.5-19.1.7-40.5-1-58-3.4-29.4-5.7-49.2-2.7-64.6s18.9-58.8 28.6-93.4c6.3-22.1 2.5-40.8 14.2-60 11.7-19.2 18.8-36 21.4-47.7 3-10.6-31 46.7-31 46.7Z" fill="#f2e8b0" fill-rule="evenodd"/><path d="M1020.4 935.9s-12.8 3.8-18.8 10.4c-6.1 6.4-8.7 11.7-16.9 22.5s-8.6 19.6-15.3 33c-6.7 13.3-21.4 33.1-23.2 40.3s-4.9 40.5-8.7 56.2a75.8 75.8 0 0 0 3.8 35.2l8.7-1.8s0 11.2 8.6 18.8c8.7 7.5 10.2-25.2 10.2-25.2l32.3-109 48.7-33.1 5.3-26.7-34.7-20.6Z" fill="#f5eec0" fill-rule="evenodd"/><path d="M1044 985.3s-23 1.5-34.1 9.7c-4.6 3.4-6.4 6.1-11.2 10.2-9 7.4-18.1 14.3-22.5 24-4.9 9.7-10.2 24.4-13.8 52.2-1.5 11.7-1.5 22.4-2.6 31.8-1.5 12.8-3.8 23-2.6 30 1.5 14.6 16.6 22.2 18 38.7l31.1-15.8 29.3-115.4 62.2-39-35.2-39.4-18.6 13Z" fill="#e6db9d" fill-rule="evenodd"/><path d="m880 1762.7.4-3.4c4.5-39 5.3-68.6 8.6-87 4.9-26.3 8.2-36 7.5-45.9-1.1-15.8-2.3-27.3-.8-39.4 2.3-16.1 18-35.2 17.6-48.4-.3-10.5-5.6-17.3-10.2-23.7l-8.2-11.7s31.1-21.4 30.8-107.5a7.8 7.8 0 0 1 1.9.7l15.3 43.6 10.4 12.7 40.2 75 51.8 50.2 76.4 51.4 48 52.2 4.8 139.1-62.7 81.3-10.2 18.6A891.4 891.4 0 0 1 880 1762.7Z" fill="#e5cb7a" fill-rule="evenodd"/><path d="M1071.3 1895.8s1.1-17.3 15.4-28.5c2.2 3.8 3.7 7.4 3.3 10.2a90.4 90.4 0 0 1 61.4-41.3c40.8-7.4 50.7-37.2 50.7-37.2l86.6-78.7 99-91.2 120.5-42.3 56.3-13.8s1 4.1-1 13.2c10.4-.8 33.6-6 57.7-14.6 9.8-3.8 18.9-5.3 23.7-.3 7.1 6.7 8.2 22.5 8.7 31.9 11.6-2.6 25.1-13.8 36-12.7 17.3 1.8 32.6 22 50.2 22 23.2 0 33.7-14.2 49.9-25.4 9.7-6.7 23.7-15 31.5-20.6 18.8-13.8 217.9-74.7 217.9-74.7l69.8 4.6 11.2 75-6 195.8-2.2 2.2-317.3 165.7-439.8 67.4a882.2 882.2 0 0 1-281.2-96.7l-2.2-10Z" fill="#d8c173" fill-rule="evenodd"/><path class="cls-6" d="M906.6 1787.7c6.3-13.1 11.9-24 12.9-28 .8 8 2.2 25.2 5 43.6q-9-7.7-18-15.7Z"/><path d="m1227.9 1972 56.9-15.8 4.8 1.5s2.6 1.5 2.6 6.7c7.1-4.1 13.2-3.4 17.6-6 2.3 4.8 4.5 20.8 14.6 22.8 10.4 2.3 21.7-4.5 33-13.2 11.3-9 24-20.2 33.7-24.7a180.2 180.2 0 0 1 9.4 20.2c12.8-10.2 35-51.5 66.5-50.7a119.7 119.7 0 0 1 43.8-53c29.3-19.8 47.6-21.3 70.5-19.5a120.7 120.7 0 0 1 33-29.6c3.9 1.5 14.3 7.9 27.4 1.8 13.2-6 28-29.6 47.6-32.6a46 46 0 0 1 30.4 6.4s57-56.6 96.3-75.4c-1.5-4.6-4.6-21.7 41.6-59.6 2.5 2.2.7 8.6 2.5 9 .8 0 12-4.9 26.3-15.8 17.6-13.2 38.7-27 51.4-30.8 24-7.1 49.5 7.4 49.5 7.4a22.9 22.9 0 0 1 7-3.3c6.1-1 10.5-1.8 13.9-3-.3 7.9 4 21.4 0 33a74.2 74.2 0 0 0 15 6.4c-2.6 5.6-8.2 19.9-17.6 26.7 7.9 3.8 9 8.2 20.2 12a215 215 0 0 0-15.3 24c-3.4 7.2-15.4 36.7-20.7 48-5.6 11.2-13.2 31.8-16.8 36s-16.9 21.6-27 30.3c9-3.4 45.8-14.6 61.4-18.8l-50.9 75.4a890.1 890.1 0 0 1-728.7 84.3Z" fill="#e0cd81" fill-rule="evenodd"/><path d="M1047.8 981.2s-13.2 0-15.8 1.8 13.2 5.7 18 7.5 15.3 10.2 18 16.8c2.6 6.4 94.8 43.6 94.8 43.6l65.2-3.4 22.5-31L1208 979l30-88.4-39.8 6.3-95.6 57-47.9 18.4Z" fill="#dfc57c" fill-rule="evenodd"/><path d="M1191 1010.5a10.3 10.3 0 0 0 9 4.9c13.5 0 26 3.3 31 10.1 8.7 11 32.7 45.8 32.7 45.8l57.3 20.7 3.7-67.5-62.6-43.6-71.3 26.3v3.3h.2Z" fill="#e5cc7c" fill-rule="evenodd"/><path d="M1179.8 1035.5s10.4.8 23.6-4 35-15.4 44.3-11.3c13.2 5.6 10.5 23.2 24.8 39 8.6 9.7 24.4 9.4 33.3 19.9s39.8 5.6 39.8 5.6l11.7 63-47 60-15.2 74.7h-63.4l-58-23-28.4-69 14.2-69.8Z" fill="#d2c281" fill-rule="evenodd"/><path d="M1302.4 1038.6a17.3 17.3 0 0 0 4.8.7c-1.8 1.5-5.6 4.9-4 13.5s6.3 19.6 2.2 26.3a32.8 32.8 0 0 1 7.1 12.4c2.6 7.4 3.4 14.3 20.2 15.3a34.8 34.8 0 0 0-6.7 5.3s11.7 10.2 17.6 19.6c6.1-.3 22.2-5.3 22.2-5.3l3.3 2.3 7.2-3s-6.7-2.6-1.9-18.8c4.6-14.2 8.7-13.5 9-14.5s3.4-16.1 3.4-22.2c2.2-7.9 4-31.8 4-31.8l-4.8-53-27.3-16.5-22.2-21.4-21 39.4-13.7 13.7-1 34.2Z" fill="#e2c270" fill-rule="evenodd"/><path d="M1368 994.3s5 13.8 6.7 24.4a23.8 23.8 0 0 0 1.1-6.4s3.8 21 4.5 29.6c1.6-.3 3-.7 3.4.8s3.8 18.3 3 27.7a75.5 75.5 0 0 1 25.5-25.5c6-3.8 13.2-7.8 20.6-8.2 11.7-.3 20.2 7.5 34.1 7.5 33.7 0 64.2-24.7 86.6-32.3 16.6-5.6 30.8-9.7 40.9-18.8 4.8-4.1 13.5-13.2 21.3-26.7 10.5-18 21.4-33.7 32.4-35.7a68.6 68.6 0 0 1-15 1s3.3-3.3 9-7.8 12.4-10.2 22.1-10.2c17.3 0 26 2.6 35.7 2.6 9.7-.3 15.3-2.6 15.3-2.6s10.1 7.2 33 7.2c23 .3 38.3 2.2 50.3 3.3s52.1-3.3 63.7-3a55.5 55.5 0 0 1 21.7 5.3l-37.2-108-133.5-116.7-79.5 56.3-122.3 122.3-118.3 43.8-24.7 27.8v42.3Z" fill="#ccb360" fill-rule="evenodd"/><path d="M1633.5 932.4s3.4-3.3 9-7.9 12.4-10.2 22.1-10.2c17.3 0 26 2.6 35.7 2.6 9.7-.3 15.3-2.6 15.3-2.6s10.2 7.2 33 7.2c23 .3 38.3 2.2 50.3 3.3s52.2-3.3 63.7-3a55.4 55.4 0 0 1 21.7 5.3l-16.8-48.7-19.6-37.2-55.8-61.1-67.5-39.7c-.3-.3-23.3-6.4-23.3-6.4l-60.6 36.7-55.1 142.4-1 30 35.6 16.9c9-15 18.8-27 28-28.5-8.3.9-14.7.9-14.7.9Z" fill="#d5b457" fill-rule="evenodd"/><path d="M1632.8 942.5c-5.3.3-9.7-.7-11-4.5-4.5-12.7-8.1-14.6-12-14.6s-8.9 8.2-12 9-6.6-9.4-6.6-9.4l-3.4-1.5s-19.5 12.7-33.3 27.7-36.4 40.5-46.6 45-45 6-57 8.7-25.2 11.2-27 13.2 5.3 4 6.4 6-11.7 1-12.8 3c-.7 1.6 3 10.2 4.9 14.6a24.6 24.6 0 0 1 10.5-2.6c11.6-.3 20.1 7.5 34 7.5 33.8 0 64.3-24.8 86.7-32.4 16.6-5.6 30.8-9.7 40.8-18.8 4.9-4 13.5-13.2 21.4-26.7a190 190 0 0 1 17-24.2Z" fill="#d2b257" fill-rule="evenodd"/><path d="M1149.8 1693.3s-3-11.2-30.8-40.2c-8-8.2-12.8-15-18-19.9-13.2-12.4-21-15.8-30.4-22.9-20.6-15.3-43-15.3-60.3-34.1s-37.5-54.8-51.5-91.5a631 631 0 0 1-17.6-49.4c0-1 3.8-8.2 8.7-7.2s4.8 10.5 6 12.8a73.3 73.3 0 0 0 8.2 10.4c7.2 8.2 17.3 18 22.5 32.6-1-12.4-5.3-26.2-5.3-26.2s26.7 16.9 49.4 34.4c23 17.6 32.3 23.7 39 35s22.5 40.7 30 49.4 111 41.3 111 41.3l49.2 36.6 24.5 53.6-19.1 30-36.8 7.9-59.6-26.7-19-26Z" fill="#d2b159" fill-rule="evenodd"/><path d="M1017.3 1508.8s12.5 20 42.8 38.7c27.3 16.6 70.6 31.6 109 40.5 22.2 5.3 44.4 9.4 64.3 9.7 53.5.8 90.4-14.5 136-19.5 24.8-2.6 55.1-4.6 86.6-12 40.6-9.7 64.5-20.7 97.1-36 23.7-11 45.4-19.1 63-29.6 24.7-14.6 42.8-30.8 63.7-35.6-2.6 7-5.3 19.8-26 33 11-.3 26-1 26-1s-14.5 8.6-40.2 28c-15.8 12-36.7 32.3-58 45.8-13.9 8.7-29 15-38.8 20.2-24 13.2-33.7 19.9-49.4 36 5.6-.3 6 0 6 0s-19.8 2.6-34 10.2c-3 0-8.3-1-17.4 1.5-7.1 2.3-16.5 7.4-26.2 10.2-13.8 4-18.4 2.2-18.4 2.2l2.3 4.6s-18-.3-24 .3c1 .3.8.7.8.7a8.9 8.9 0 0 0-3 1.1 31.5 31.5 0 0 1-9.4 4c-1.9.4-3.4.4-5.7.8.8 1.9 6.7 12 9.4 18l-36.4 27.4a25.8 25.8 0 0 1 2.6 5.3c1 3.3 1.5 8.2 2.6 10.4 2.6 4.6 4 5.3 4 5.3s-4 .8-11.2 2.6c-6 1.5-13.5 4.1-24 5.6a95.5 95.5 0 0 1-9.7.8c1.6 3.3 8.2 16-4 30.8s-16.1 16.8-20 26.2a39.8 39.8 0 0 0-6-3.8c-4-1.8-9.7-4.5-11.7-8.2a97.7 97.7 0 0 1-4.5 14.3c-3.8 10.2-9.4 20.2-10.5 27.8-4-4.6-11.7-13.5-22.1-11.7s-18.9 16-20.7 20.2c0-2.6-1.8-4.6-2.2-1.6-.4 3.4-6.1 38.3-38.3 66.5-.3-7.2-.3-23-1-28-3 3-6.7 7.3-28.6 16.8-21.3 9.4-18 18.8-18 18.8s-1.8-15 9.8-30.8c11.6-15.8 18.8-23.2 18.8-24.5a6.8 6.8 0 0 0-1.6-3.3c-1.5-1.5-4.5-3.3-4.5-4.5 1.8-.8 19.9-9.4 18.8-27.4-1-16-7.9-24.4-12.7-30.3-.8-.7 7.1-6.4 6-8.2-.7-1-10.4-8.2-11.6-12a33.8 33.8 0 0 1 1.5-6.6c1-3.4 1.8-5.7 1.5-8a63.1 63.1 0 0 0-6-15.3c1 .3 8.6 0 8.6 0s-6-9.7-7.2-14.2-3.3-16.6-4.5-18.8c2.6.3 9 .7 9 0 .3-2.3-5.6-6-3-9 1.8.3 5.3 1.8 8.6 6-1.8-4.8-4.8-14.2-11.2-18 3-1 13.2-3.8 22.1 1.6s12 12.7 12 12.7l13.6 10.2c9.4 7.4 21.3 18 40.5 25.4 4 2.3 14.5 2.3 22.1.8a34.4 34.4 0 0 0 9.4-3.8 16.2 16.2 0 0 1 3.4-1.5 72.5 72.5 0 0 0-5.7-9.4c2.6 0 5.7.3 5.7.3s1.8-4.1-6.4-12c1.8-1.8 4-3 4-6-2.5-.4-7-4.2-8.1-5.7 1.5-1 3.8-4.5 6.4-5.6-2.3-1.8-8-9.4-10.5-10.2a49.2 49.2 0 0 0 7.1-3.3s-12.7-3.3-16.8-6c-4.1-3-10.2-8.3-13.8-9.8-3.8-1.5-10.5-2.2-13.2-5.3 2.6.8 6.7 0 9.7 0 2.3 0 3.3.3 4 .3-.2-1-.2-3.3 5.7-4a27.7 27.7 0 0 0 8.2-2.7s-5.6-.3-12-6.3-11.7-11-15.3-11.7c-3.8-.8-11 2.6-15.3 2.3-6.1-.8-8.7-3.8-8.7-3.8s-20.2 1.8-65-25.5c-38.6-23.7-55.5-44.6-55.5-44.6a67.1 67.1 0 0 1-10.4-4.9c-14.6-7.5-34.7-23.3-34.1-44Z" fill="#c2a44d" fill-rule="evenodd"/><path class="cls-24" d="M1575.4 598.3a19.6 19.6 0 0 1 9 6.1c7.2 8.2 11.7 23.7-4.5 40.2 6.4 2.3 9 3 14.5 2.3-5.6 6.7-18.3 21-19 33.4-.8 10.1 5.5 13.2 5.5 13.2s-9.7 11.2-10.1 30a119.7 119.7 0 0 1 15-14.3 389 389 0 0 1 37.2-25.5 21.5 21.5 0 0 0 1 7.9s19.6-16 36-9c7.4 3.4 4.1 13.9 4.1 13.9s10.2-3.8 17.3 3.3 17.2 25.5 22.4 32.7c2.3 3.3 8.2 9.7 14.2 19.5a247.3 247.3 0 0 1 20.7 43.6c.3-8 2.2-20.2 24.7-12.5 22.4 7.9 48 24.4 69.3 57s26.7 69.3 37.5 83.3c10.9 13.6 22.1 36 22.9 45.4s-3.3 39.8 19.1 121.8c6.4-25.5 16-82 16-82l5.4-50 6-154.4-161.2-134-126-91.5-82.1 8 5.1 11.6Z"/><path d="M1875 828.2s-2.3-15-40.2-40.5c-38-25.2-67.5-25.2-94.8-46.6-21-16.9-42.8-55.5-57-68.3-13.8-12.6-16-49-16-49l46.5-39 69.2-100 58.6-64.6 28 39 39 45.8 21.8 92 7.9 134.5-63 96.7Z" fill="#b59544" fill-rule="evenodd"/><path d="M1922 989.5a170.9 170.9 0 0 0-7.5-60.4c-10-31.1-31.9-86.3-42-107-4.1-23-1-24.7 3.3-27.3s21-12 30-45 37.2-34.2 37.2-34.2l17.3-12.7 26.2 65.6 23 59.3 7 45.4 5.4 38.7-12.5 81.8-61.4 55.5-26-59.7Z" fill="#c89d3a" fill-rule="evenodd"/><path d="M1064.7 1900.8v-1.6a13.2 13.2 0 0 0 3.3-3c1-1.6 1.8-3.4 2.6-3.8 1.5-.8 8.6-3 12.4-2.3s13.8 4.8 19.1 4.5c11-.3 23.7-8.6 43.9-4.8 30.3 5.6 37.4 26.2 55 38 12 8.1 24.5 4.5 26.3 4.5h4c.8 0 6.4-6.4 9.5-6.1 6 .3 6.7 5.3 10.4 5.6 9 1 26.3-4.5 35-2.3a16.7 16.7 0 0 1 10.9 11c1.8 5.6.3 12.7-4.1 16.8-9.4 8.6-18.4 16.8-20.2 24a84.8 84.8 0 0 1 6.7 5.6 883.4 883.4 0 0 1-214.8-86Z" fill="#ceb052" fill-rule="evenodd"/><path d="M1872.5 1597.7s23.6-31.5 31.8-47.1c8.2-16.1-26-220.1-26-220.1l68.7-224.7-1.8-73.1s3.3-67.5 11.2-96.8c9.4 16.8 38.7 37.2 45 48 3-20.7 13.2-64.2 11.7-110.7 5.7 8.7 19.2 95.6 19.2 95.6l13.5 58.6 17.6 62.2 19.5 65.6 11.7 45.4 6.7 11 5.6 19 5.3 20.7 15.3 48.4 9 39.7 7.1 72a109.3 109.3 0 0 1 3.4 16.9c.3 7.9-1 12.4-1 13.8s2.5 17.3 1.5 29.3c-1.6 12-1.6 21.4-11 30s-15.3 60-15.3 60l-16.8-11.2s3.3-15.3-4.6-29.2-23.2-16.9-31.9-14.6c-8.6 1.8-25.9 4.5-31.5 9.4-5.3 4.9-18.4 19.9-30.3 26.7-15 9-39.5 9.7-52.5 12.7-13.2 3-27.8 12-43.1 22.5a241.2 241.2 0 0 1-38 20Z" fill="#cca847" fill-rule="evenodd"/><path d="m1872.5 1929.2 2.9 1.7a891.2 891.2 0 0 0 284-210.5c-.9-30.7-2-62.2-3.2-73.8-2.6-24.7-.8-50-1.6-64.5s-9-73.9-12.7-89.2c-4.1-15.3-12-22.9-13.2-22.9-1 .3-7.4 28.8-7.4 36s-1.6 24.4-1.6 28.8c-1-.3-1.5-3-1.5-4-1.5 3.7-3.3 10.4-4 11.2s1-6.4 0-8-3-.7-2.6-4.5a42.9 42.9 0 0 1 1-6.7s-4.5 6.7-7.9 23.7c-3.3 16.8-3.3 17.3-4.5 18.8-1 1.8-7.1 8-7.5 10.2-.3 4 5.7 8.2 6.1 10.5.3 3.8-5.3 21.3-7.1 30s-1 25.4-3 34c-1.5 8-3 12.5-8.2 15.9 3.8.7 7.4 1.8 7.4 1.8s5.3 22.4-8.2 41.5c-4.8 6.7-6 9.7-11.2 15.8-10.2 11.2-18 24-18.8 32.3a53.5 53.5 0 0 1-1-7.4s-15.8 18.3-22.5 28.8c-8.7 13.5-20.6 12.8-24 16.1s-4.1 9.4-3 14.3c-3 .7-8.7 1.8-12.5 13.5-1.8 6-6.3 12-13.5 16s-15.7 5.3-20.1 6.4c3.8 1 5.3 1 7 2.3-2.2 3.8-12.6 9.7-24.3 17.3a51 51 0 0 0-20.2 24.4c-3 6.4-7.4 10.5-14.6 11.2 3 1.8 7.5 6 9.7 7.5-3.3.7-9 .7-19 9.4-10.7 8.8-14.3 11.4-19.2 12.1Z" fill="#c39d3c" fill-rule="evenodd"/><path d="M1661.4 1999.5a85.3 85.3 0 0 1 18.7-10c23.7-9.3 48.7-11.2 58.6-14.2 9.4-3 16.8-7.1 28.5-9.4l-.9 7.5a885.7 885.7 0 0 1-105 26.1Z" fill="#d2ba6b" fill-rule="evenodd"/><path d="M2097.8 1377.2s-4.9 26.2-13.5 42.8-18 39.4-18 39.4a71.3 71.3 0 0 1 1.8-15.3c-11 6.3-37.5 21.7-45 28.5a152.4 152.4 0 0 0-22.1 22.9c7-21 14.5-39.7 15.7-48.4-10.9 7.9-61.9 50-88.4 77.7l-82.7 66.9a289.5 289.5 0 0 1-29.4 13.8c-14.3 6-31.1 11.2-43.5 16 3.3-9 8.6-16.8 16-24.4 8-7.4 31.6-33 35.2-45 3.4-12.4 4.1-19.9-.3-30.3-4 1-13.5 1.5-19.8 3.3s-13.2 8.6-13.2 8.6 4.8-27.7 15.3-54c-8 .3-21.4 2.6-21.4 2.6s18.8-31.5 51-53.5a165 165 0 0 0-28.8 9c-18.8 7.8-39.5 19.5-54.8 25.8 8.6-12 69.3-98.5 105.4-179.3 36-80.5 49.5-101.1 57.4-144.4 4-21.4 3-53 4-81.3 1.1-28 4.6-53.2 2.3-70 9.4 11.6 44.6 44.5 45.8 118.1s-33.6 173-70.5 226.5c9 2.6 32.3 5.6 56.3-36s23.7-53.2 32.3-70.6c1 8.7.8 11.7.8 11.7s34.9-42.3 51.4-95.5c3.3 22.9 13.2 43-2.3 85-13.8 38-31.8 47.3-31.8 47.3s9-1.6 22.1-9.5c2.3 5.7 1.8 12 5.6 14.3s9 6 9.7 9.7c4.1-6 10.5-13.8 12.5-19.6-1.6 12-2.6 64.5 3 91.2 11.7-1 23.6-1.8 31.8-22.9a93.8 93.8 0 0 0-1.8 50.7c6.2-4.3 11.8-11.9 11.8-11.9Z" fill="#c0993a" fill-rule="evenodd"/><path class="cls-32" d="M1703.6 541s-11.7 4.8-31.5 4.8c-17.3 0-12.5-6.6-39.5-6.6-41.5 0-186.7 24-212.2 23.6-16.5-.3 55.8 7.2 55.8 7.2l185 2.6 37.1-3 13.8-28.1Z"/><path d="M1224.1 902.5s-23.7 18-33.7 31.9-15.3 22.9-26.7 34a23.4 23.4 0 0 0 8-1s0 3-2 3.8a10.6 10.6 0 0 1 8.7 3c-3.3 1.8-12.4 11-5.3 21.7 5.3 8.2 16.6 9 16.6 9s-2.6 7.4 8.2 6.6c23.2-1 49.1-11.2 61-8.6 12 3 18.9 4 27.4 18.8 9 14.6 16.8 16.9 16.8 16.9s5.3-13.6 4.1-33.7a100.5 100.5 0 0 0 7.2-34.2l-8-58L1272 869l-44.6 24.7-3.3 8.7Z" fill="#e3c571" fill-rule="evenodd"/><path d="M1266.4 893.9s3.4 7.8 17.3 8.6c-1.5 3.3-1.5 3.8-1 6.4l.7 6.3a14.4 14.4 0 0 0 4.1-3c.8 3.4-.8 8.7 0 12.5a27.6 27.6 0 0 0 2.3 6.6 11.8 11.8 0 0 1 .7-1.5c.3-.7 3 8.2 10.5 15a6.2 6.2 0 0 1 .8-3 10.5 10.5 0 0 0 1.8 5.3 5.7 5.7 0 0 1-1.5-1s.7 24 4.8 36.4a18.5 18.5 0 0 0 1.8-2.6c0-.7-.3 6.7-1 12-1 5.3-.3 12.7-.3 12.7a39.4 39.4 0 0 1 9-5.3c4.5-1.8 12-7.4 16.5-19.8a134 134 0 0 0 6-21.7 30.4 30.4 0 0 1 3 9c.3 3.8 7.5 1.8 7.5 1.8l1.5-16.5 9-37.5 8.2-23.2 39.4-61.5 71.3-54.8 62.2 14.2 52.5-71.3-90.4-54.3-85.6 9-77.7 107.5-62.2 97.6-11.2 16Z" fill="#d8b65b" fill-rule="evenodd"/><path d="M1714.5 738.2s-5.3 1-20.6 9-26 10.5-31.9 22.1-6.3 21-6.3 21 10.5-4.6 16.5-6c6.4-1.6 13.5-1.1 12.8 1.4a17.8 17.8 0 0 1-3 4.9s12-.3 11.6 5.6-2.2 12.4-4.5 15.3-11.7 7.5-12.7 11c-2.6 7 1 7.4-.3 13.2-1.1 5.6-6.1 16.5-22.5 35.6-16.8 19.1-24 32.6-24 32.6s-8.2-15.3-12.4-28.5c-3 1.5-19.1 10.5-19.1 10.5l-37.4-130 .8-8.7s3.3-4 4-11.7c-5.5-1.8-6.3-3.3-13.7-10.4s-13.5-15.8-26-21.7c-1.8-3.4-4-8-13.2-9.7s-14.5-3.4-14.5-3.4 4.8-1.8 7.1-5.6c-5.6.8-10.1 2.6-22.4 2.3-12.5-.3-13.8-.8-20.7.3s-15 4-18-6.4c-3.4-2.6-10.5-.3-16.6 8.7s-8.1 16-19.8 19.5a40.9 40.9 0 0 1-5.3 14.6c-3.4 5.6-8.7 11.2-15.8 19.6-11.2 13.2-9.4 34.9-27.3 51.4s3-45.8 3-45.8l28.8-69 82-80.3 127.5-8.6 12.4 66 62.2 21.4 39.3 60Z" fill="#d3ae4d" fill-rule="evenodd"/><path class="cls-24" d="m1734.7 752.8-53.5-77.2-37.5-28.9s-26.7-49.1-28.5-50.6c-1.5-1-26.7-3.8-42.8-4.9l3 7.4a19.6 19.6 0 0 1 9 6.1c7.1 8.2 11.7 23.7-4.5 40.2 6.3 2.3 9 3 14.5 2.3-5.6 6.7-18.3 21-19.1 33.4-.8 10.1 5.6 13.2 5.6 13.2s-9.7 11.2-10.2 30a119.7 119.7 0 0 1 15-14.3c11.3-9 26.7-19.1 37.2-25.5a21.4 21.4 0 0 0 1 7.9s19.6-16 36-9c7.5 3.4 4.2 13.9 4.2 13.9s10.1-3.8 17.3 3.3 17.3 25.5 22.4 32.6c2.3 3.4 8.2 9.7 14.3 19.6a247.4 247.4 0 0 1 20.6 43.5c.3-6 1.5-14.5 12-14.5l-16-28.6Z"/><path d="M932 972.1s-3.9-9.4 0-27.7 9.6-27 11.6-54 19.6-60.7 19.6-60.7l48.7-22.1 34.4 9.4 10.2 46-43.6 24s-2.2 10.2-14.5 18.4-29.3 14.6-33.4 23a66.4 66.4 0 0 0-5.3 16s-12.4-2.6-19.9 5.6c-7.9 8.4-7.6 15.8-7.9 22.2Z" fill="#f4efc8" fill-rule="evenodd"/><path d="M1030.2 959.8s-4 2.6-7.1 9c-3-4.8-10.2-33.6-10.5-59.6s-1.8-32.4 4.2-41.3 29.5-18.3 26.2-34.4c-3.4-15.4-17.3-21.7-34.5-17.3-12 3-20.9 28.5-33.3 41.2-9.5 9.7-20.7 8.2-23.7 13.5-4.1 7.2-.3 14.3-1.5 18.8a90 90 0 0 1-11 19.6c-13.7 19.9-37.1 48-40.1 73.1 1-14.2.3-14.5 4-30.3l-2.2-3.8 15-49.2 9.7-40.5 21.7-67.8 38.2-69.3 37.2-41.6 38.6 2.6 4.6 58.1 22.1 109 46.6 57.4-74.6 50.2-29.6 2.6Z" fill="#ebcc73" fill-rule="evenodd"/><path d="M1053.4 980.5s-6.3 1.5-8.6.3-4.5-2.6-3.8-4.1 4.8-4.1 4.8-5.4a4.3 4.3 0 0 0-3.7-4.5c-3.5-.4-4.6 1.8-4.6 1.8s-3.3-2.5-6-3a41.4 41.4 0 0 1 4.8-.3 47.1 47.1 0 0 0-13.2-3.8c3.8-2.2 11.2-9 16-9s8-.7 7.2-3.3-4.5-6.3-8.6-7.8c1.5-1.9 2.5-4.6-1-12-3.9-7.5-2.4-12.5-1.2-14.3 1.1-2.3 4.9-6.4 6.7-9s3.4-6 6.4-7.9c1.5-1 6.4-3 11.2-4.8 5.3-1.9 9.7-4.1 12.8-1.9 3.3 2.3 1.8 5.4 1.8 5.4s10.4-3.8 19.8 1c9.5 4.5 32.4 7.4 32.4 7.4l8.2 16.6-54.3 46.5-22.5 11.3-4.5.8Z" fill="#e5c66b" fill-rule="evenodd"/><path d="M1128.8 904.3s-16.8 11.3-20.6 15.3c2.3.4 6 1.9 4.5 4.1-1.8 2.3-12.7 10.2-18.8 17.6a116 116 0 0 0-14.5 21.4 77 77 0 0 1-25.5 17.6c12.4 0 37.5-15.3 46.9-15.3-.3 4.6 2.5 9.7 7.8 10.2s20.7 3.3 41.3-9.4c20.6-12.5 13.8-21.7 22.5-27.8 16.5-11 23.2-20.6 32.3-26.7s13.8-7.4 13.8-7.4.3-4.6 3-4.1a4 4 0 0 1 3.3 2.6s15.8-11.3 36-14.3a2.1 2.1 0 0 1-1-1s1.5-.8 1.8-1.6c0 0 1-1.5 1.8-.7s1.8 6.3 3.3 8.6c3.4-1.5 9.7-15.8 9.7-15.8l15.4-43.8v-40l-12 2.3-90 38.2-54.6 56.6-6.4 13.5Z" fill="#e6bd62" fill-rule="evenodd"/><path d="M1388 707.9a51.4 51.4 0 0 0 13.8-5.6c-1.8 4.8-1.8 10.1-9.7 21.7s-8.2 13.2-14.6 25.1c-6.4 12.5-7.1 30.4-13.2 38.2a27.5 27.5 0 0 1 8.6-2.5s-6 5.3-8.6 10.9-7.1 17.3-18.3 24.4-25.5 11.7-40.8 28.5c-15.3 16.6-31.1 37.5-39 45 4-7 9.7-21.3 11.2-30.7s-.3-20.7 2.3-33.1 2.6-21.4 15-43.1 33.7-97 33.7-97l45.8-14.7 13.8 32.8Z" fill="#b6933f" fill-rule="evenodd"/><path d="M1354.9 680.1s-13.8 19.9-17.6 37.5-.3 16-2.6 24.7a32.2 32.2 0 0 0 0 16 57 57 0 0 1 19-18.7c13-8 23.7-13.5 30-20.2 6.4-7.1 11.8-18.8 25.6-27.8-5.6-.7-13.5-3.3-15-3 5.6-6.3 22.4-16 39.4-27.7 16.8-12 15.8-16.9 43-28.8-9 1.5-13.1-.8-20.6 0 3-6.4 13.5-9.4 24-20s-6.6-25.8-6.6-25.8l-80 48.3-38.7 45.5Z" fill="#c49937" fill-rule="evenodd"/><path fill="#dfc068" fill-rule="evenodd" d="m1137.8 644 1.8-14.6 22.9-36.7 24-64.4v-88.2l-1.8-51 3.8-33.3 2.8-10.6 3.1-4.1 19.5 10.1 27 36.7 2.6 70.9-26.2 111.8-75 81.8-4.5-8.4z"/><path class="cls-32" d="M1197.4 337s-12 .3-14.6 50.2-3.8 76.2-5.6 100.9-6 39.7-8.2 54.3-3.3 34.4-10.1 46.6c-3 5.6-9.4 23.2-24.5 36.4a150.6 150.6 0 0 1-45.8 25.5c-6.6 1.5-40.5 4.8-54.3 12.4-4.8 2.6-13.2 5.6-22.4 14.3a286.5 286.5 0 0 0-60.4 81.7c-27 53.3-54 203.6-54 203.6l6-10.1s.8-13.5 14.3-37.2c13.2-23.7 9.4-50.2 27.8-95.6 7.1-17.3 16-39.7 27-58.8 17.3-31.1 38.2-57.8 59.3-72.4a186.4 186.4 0 0 1 72.4-28.8l40.8-27s7.1-13.8 16.5-29.6c13.2-22.1 30-46.9 33.7-82.8 5.6-53.3-8-88.2-7.1-119.7s1-54.8 7.4-60.4 1.8-3.5 1.8-3.5Z"/><path d="M1197.4 575.1s18-44.3 26.2-83.6c1.6-7.9 4.6-15.7 5.4-22.1 3.7-37.2 4.8-52.5 0-72.8-3.8-15-18.4-28.5-26-39-7.4-11-11-15-9.4-17.3s7.4-6 13.2-5.6a45.2 45.2 0 0 1 32.3 15c11.7 13.5 21 59.3 21 59.3l9.7 60.4 24.7 76.2-97 29.6Z" fill="#c99e3d" fill-rule="evenodd"/><path d="M1366.5 529s-3.3 1.5-9.4 0a13.6 13.6 0 0 1-6 12.7c-6.4-2.5-66 2.6-66 2.6s-27.8-4.8-36.4-41.5c-6.1-24.5 4.5-58.1 1-80.3-5.3-32.6-12.7-39-13.5-49.1s-1.5-12.8-1.5-19.2c-3.3-.7-5.3-1.8-8.6-1.8-.8-3 .7-5.6-2.6-11 1.8.9 14.2 2.4 28.8 16.2 12 11.2 12 15.3 13.8 17.6 2.3 2.2 20.6 18 28.5 33.7s23.2 65.6 26.7 73.8c1 3.4 3.4 6.7 9 14.3 8.8 11 21.7 29 36.3 32Z" fill="#b58634" fill-rule="evenodd"/><path class="cls-32" d="M1268.3 376a420.1 420.1 0 0 1 24.7 46c9 20.2 14.3 36.8 25.5 50.3-6-17.6-16.8-52.2-23.2-64.5-7.1-13-21.7-27-27-31.8Z"/><path d="M1165 625.4s-15.2 3.7-43.8 18.8c-9.4 4.8-18.3 8.9-27 12.7a471.2 471.2 0 0 1-65.6 24.7l2.2 2.6s0 7.4 4.1 11.7c-2.2 2.3-32.6 22.9-23.6 92 6-2.4 13.2-5.4 14.2-5.4 1.8.3 2.3 5.3 4.6 5.3s9.7-3 17.6-13.2c-.3 4.1-4.9 45.4 19.5 73.1 4.6-5.3 16.1-22.9 16.1-22.9l.3-5.6s1-19.6 7.5-37.5 18.8-31 18.8-31l64.9-92.7-9.7-32.6Z" fill="#e6c367" fill-rule="evenodd"/><path d="M1104.4 761.5a36 36 0 0 1-9.7 4.8c-1-3.8-2.6-16.8 6.4-29.6 10.4-15.3 33.3-35.2 39.7-51 4.1-10.2 2.3-35.6 38.7-68.3s50.7-43.8 50.7-43.8L1289 544l72.4 28.5-36 141-28 66-111-21-82 3Z" fill="#dcba5a" fill-rule="evenodd"/><path d="m1146.8 723.2 13.8-17.3v-12.3s15.3-4 31.8-21 39.5-49 59.7-47.1c20.1 2.3 22.1 43.8 22.9 55.5s3.3 38.2 7.4 52.5c4.5 14.3-49.2 68.3-49.2 68.3l-36.4 27.7Z" fill="#e9ce77" fill-rule="evenodd"/><path d="M1189.5 867.1s11.2-17.6 3-21.3c4.9-11 13.8-22.5 13.8-22.5s6.4-15.8 27-35.2 33.4-32.3 36.7-45.3a119.4 119.4 0 0 0 3.4-26 49.5 49.5 0 0 0 7.1 4.9c3.3 1.5 19.1 14.5 16.8 40.8s-12 37.1-12 37.1-9.4 9.4-16 14.3c-7.2 4.9-9.7 10.5-21.7 11a14.3 14.3 0 0 1 4-2.4s-12.4-1.5-19 4.6-21 24.7-28 30.3l-15 9.8Z" fill="#cdae50" fill-rule="evenodd"/><path d="M1694 572a182.4 182.4 0 0 0-56-10.8c-31.8-1-78.3.7-124 1-49.1.3-93.7-16.8-155.6-19.8-10.2-6.1-36-32.7-116.7 23.6 4.8-.3 58.6-12.4 77.2 11 18.8 23.2 13.5 62.6 11 72-5 20.9-20.7 51.4-27 72.8s-5 32.6-9.5 47.6-14.5 22.4-8.6 39.7c7.9-4.8 12-4.8 25.2-34.4s10.4-50.7 32.3-75.7c21.4-25.2 57-59.6 70.5-68.3s121-64.4 233.6-11.2c27.2-2.9 47.5-47.5 47.5-47.5Z" fill="#d2a83e" fill-rule="evenodd"/><path d="M1287 551.5a14 14 0 0 0-.7-3.4 24.6 24.6 0 0 0-4.1-6s-26.7-5-40.2-3.4c-23.7 2.6-45 31.9-55 46.9s-22.5 38.2-36 50.2a5 5 0 0 0-.8-3.3s.7 1-.8 2.5-1.5 2.3-.7 3l2.2 2.3c.8 0 21.7-9.4 50.2-36 30.4-27.8 53.6-42 65.7-46.9a91.5 91.5 0 0 1 20.2-6Z" fill="#c29637" fill-rule="evenodd"/><path d="M1805 437.4s-4.9 6-11 12.7c-13.4 14.3-31 30.4-46 46.9-14.3 15.8-30.4 28-48.4 48.7s-39 43.5-44.3 50.2a49.5 49.5 0 0 0-8.7 23.2l-5.6-3.8a37.9 37.9 0 0 0 4.6 6.7c3.8 5.3 9.7 12 12.7 16a49 49 0 0 1 7.9 17.4c1.8.3 13.5 2.6 28-21.4s33.7-50.2 33.7-50.2l30.4-45 19-38.3 24-42.8 3.7-20.3Z" fill="#ac8132" fill-rule="evenodd"/><path class="cls-32" d="M1836 406.8s-18.3 15-25.4 24-24 32.6-24 32.6l6-.8 30.8-27.3 12-21.4.6-7.1Z"/><path d="M1830.4 1612.3s-.3-12.4 6.7-19.9c7.2-7.4 25.2-18.3 42.8-59.3s19.6-50.2 19.6-50.2-31.6 27-51 33.4c4.5-9.4 7-16.1 9.4-21-2.6-2.2-13.5-4.8-14.6-6 6-6.1 9.4-21 21.7-30.8 15.8-12 44.6-32.6 67-51s66.4-61.2 72-73.6c3.4 4.8 4.2 7.9 4.2 7.9s-22.2 28.8-33.7 47.2c-10.2 15.7-9.4 24.7-9.4 24.7l21-9s6 22.4-21.5 56.6c12-4.6 16.9-1.8 23.7-5.6-11.2 7.1-26.7 16.8-41.3 43.5-14.2 26.7-33.7 57.8-66.4 77.2a545.6 545.6 0 0 0-50.2 35.8Z" fill="#a67a2e" fill-rule="evenodd"/><path class="cls-53" d="M1748.2 587.9s-12.4 26-14.2 46.1c-.3 4.9-1.5 8.7-1.5 14.3-.3 18 1 38.2-3 47.6-1.5-3.8-2.3-6.4-3.8-7.9-2.3 6.4-6.4 26.2-9.7 33.7-1.5-4.9-4.9-21.7-4.6-41.6s.8-23.7.8-27.7c-.8 6-4.9 14.2-6.4 19-2.3-4-4.8-9.3-7.9-13.7-1.8 3-4 7.4-6 9.7-.3-1.8-1.1-6.7-1.6-13.5-.3-8-.7-18-.3-20.2.8-4 7.2-20.2 20.7-34.9 16-17.6 32.6-51.4 37.4-61.9s25.5-54 25.5-54h15.8l-23 52.2s-13.7 28.5-20.8 39-22.2 40.5-28.9 52.2c4.9-6.4 9-9.7 13.8-15.8 4.7-4.2 17.8-22.6 17.8-22.6Z"/><path d="M1836.4 404.8a65.5 65.5 0 0 1-12 21.7c-9.5 11.2-29.6 26.2-39.5 38.2-9 11.7-27 43.5-18.8 81.3 3-8.2 8.7-24.4 23.7-42.8s31-39.4 39-55.8c7.9-16.5 9-29.6 9-29.6l3-3.8-2-8.6-2.5-.6Z" fill="#cba94c" fill-rule="evenodd"/><path class="cls-32" d="M2143.6 1411s-6.1-16.5-8-31.6 3-18-2.5-35.1c-3.4-10.5-9.4-9-11-10.5s-2.5-17.3-2.2-26-.3-19.8-1.8-24.7c-2.3-1.8-3.8-3.3-7.2-14.5-3.8-11.3-5.6-16.9-7.4-20.2s-7.1-6.4-7.1-9.7c0-6.7 6-10.2 6-12-.3-3.8-4.8-.8-6-1.8-1.5-1.9 3.8-12.8 1.8-14.3-.8-.8-6 5.6-7.4 3.8-1.6-1.8-3.4-19.9-6.1-31.9-2.6-11.6-5.3-20.1-5.6-23.6-.3-3.4-21-62.2-26-76.5a362 362 0 0 1-10.1-36.7c-1.5-7.1-2.6-21.7-3.3-20.2s-.3 9-1.6 8.7c-1-.3-4.8-26.3-6-30.4-1-4-7.5-18-9-28s-4.9-36.7-7.1-54.8-3.4-25.5-3.4-30a187.5 187.5 0 0 0-1.8-33c-3-19.2-9-42.4-14.3-55.9-10.1-25.5-37.1-90.7-42-107 0-4 5.3-1.8 5.3-1.8s13.2 33 23 58.5c9.4 25.5 18.3 48 20.6 50.3 1.8 2.2 16 27.3 22.4 68.2s8.7 78.7 12.5 104c1.8 12 3.3 24.7 7.1 37.4 4 13.8 10.5 28 18.8 50a330.2 330.2 0 0 1 15.3 46.8c3.4 16.8 3.4 29.6 5.3 38 1.9 7 4.6 21.3 11 42s15.7 47.1 22.1 63.6a352 352 0 0 1 19.9 75.4c1.7 15.2 7.3 67.7 5.8 83.5Z"/><path d="m1837.1 403-.7 1.8s2.2.8 1.8 3.8a91 91 0 0 1-.8 12.5c-.7 5.3-2.3 9.4-2.6 12.7 0 7.1 1.1 15.3-9 35.6-3 5.7-4.8 10.5-6.3 13.9a40.9 40.9 0 0 1-8 13.1c5.4-3 24.5-15 34.2-13.1a71.2 71.2 0 0 0-23.2 20.9c1.5.3 7.9 1.5 18 0 16.8-2.6 35.7-8.7 52.2-7.4 18 1 11-21.7 11-21.7l-21-45.9-39.4-27.7-6.2 1.5Z" fill="#be9c44" fill-rule="evenodd"/><path d="M1940 746.1s-17.6-17.6-24.7-78c-7.2-60.7-5.6-150-5.6-150l-14.3-34.9s-3-23.2-10.5-31.8-22.1-23.2-28.8-30.4-14.2-16.8-18.8-18.3c2.3-3.8 12.4-25.2 51.4-25.5s51 21.4 55 29.3 22.5 42 29.4 107c6.3 64.9 6.6 69.7 5.6 92.2-.8 12.4-4.9 41.3-12 72-6.5 26-13.7 55.2-26.7 68.4Z" fill="#a17c34" fill-rule="evenodd"/><path class="cls-53" d="M1884.8 797.8a29.8 29.8 0 0 0 16.8-3.8c5.6-.3 26 2.3 41.6-17.6 1 4.6 3.8 16.9-3.4 27.8 3.8-3.8 9.4-5.3 10.2-6.4.3 5.6 5.6 23-16.8 65 6-6.7 13.2-6.4 19.5-7.2.3 8 4.6 34.4-6.6 48.7-7.5 9.7-19.6 6.7-19.6 6.7a37.6 37.6 0 0 0 0-6.4c-.3-4-1.8-8.2-.8-10.9a54.4 54.4 0 0 1-15.7-11c-13.2-12.4-30.3-33.6-31.6-49.4-1.5-17.6 14.3-21.4 14.3-21.4a17.1 17.1 0 0 1-3.3-4c-.8-2.6-1.5-6.7-4.6-10"/><path d="M1767.8 607s-.8-1-4.9 3.8c.8-4.9 1.5-9.4 1.8-13.8a47 47 0 0 1 7.5-11.2c-2.3 4.5-3.8 8.6-3.8 8.6s5.6-10.5 13.8-16.8c5.6-4.6 12.7-6.7 15.8-11 3.3-4.5 2.6-5.3 3.3-6 0 0 7.4-4.9 18.8-19.2 1.5-1.8 3.8-3.7 5.3-5.6 2.6-1 8.7-3.8 15.8-7.4 7.4-4 15.8-9.7 21-12 10.1-4.6 20.9-4 25.9-11.2 3.8-1 7.9-12.5 7.1-22.2a91.9 91.9 0 0 1 44.3 59.3c7.1 27.8-5.6 70.6-11 91.2s-6 36-13.4 45.4c-9.4 12.4-39.7 30-47.2 38.7-6.4 7-25.5 25.1-24.7 38.2.7 9.7 12.7 15 15.3 16.8s2.6 4.1 7.4 3 6.7-3.3 8.7-3.3c2.3.3 2.3.7 3.3.7a11.7 11.7 0 0 0 2.3-.3s-.8 13.8-33 18c-2.4.3-4.6 1-7.5 1.5 3.8-1.8 6-1.8 10.2-7.4-4.6-.7-17.6-1.5-21-2.6 1-1.8 4.6-6.6 7.4-9 2.6-2.2-.3-3-2.5-1.8a118.8 118.8 0 0 0-11.2 8.7c-3.8 3.3-7.2 7.8-13.2 12a29.3 29.3 0 0 1 5.6-26c-1.9.3-5.4 5.6-8.7 4.6a48.2 48.2 0 0 1 1-16.6c1.9-6.8 11.8-18.8 11.8-18.8l47.6-85 10.1-64.6-109 21.3Z" fill="#92723a" fill-rule="evenodd"/><path d="M1765.2 610.6s-2.6 1.8 2.6 5.3c-.8 1.1-2.6 4.9-4.9 7.5-2.5 3-5.3 4.8-6.3 7.4-2.3 5.3-4.1 9-4.1 11.2s-.8 16.9-7.2 26.3c-2.2 3.3-4.8 9-6.6 12.7-3.8 6.7-7.2 12-8 15-1.4 5.3-2.5 19.9-2.5 19.9l4.5-5.6a42.9 42.9 0 0 1-6.6 10.9c1.8-1.5 7.1-5.3 16-13.2 12.5-10.5 32-28 55.6-42-7.2 2.6-13.2 2.6-18 3.3 3.8-3.8 37.9-43.8 55.8-47.6a7.2 7.2 0 0 0 1.5-4.9l-15.3-1.5-31.1 6.7-4.6-24-20.8 12.6Z" fill="#b18e3e" fill-rule="evenodd"/><path d="M1814.7 747.2s-4.1 4-8 14.2a47.9 47.9 0 0 1-7.4-10.2c-5.6-9.4-14.2-21.3-34.4-14.5-.3-6.4-.8-9.7 0-14.3 3.3-.7 13.5-9 23.7-20.9a96.8 96.8 0 0 0 18.3-29.6c3-2.3 8.2-6 15-10.4 9.7-6.7 21.4-15.8 23.2-26-4.5 1.8-14.2 6.4-28.8 5.6 5.6-2.6 14.3-5.3 13.2-16.5l4.1-2.6a15 15 0 0 0-5.3-.8c-.3-1-.8-2.5-3.3-1.8s-3 .8-3.4 1.8c-1 .4-4.5 0-7.1 1.9s-9.7 7.9-12.4 9l2.5-4.6s-7.4.7-12.7 3c-9.7 3.3-21 9.4-32.3 15.3 1-1.8 1.5-3 2.2-3.3s2.6-.8 2.6-1.1-.7-3-.3-4a138.3 138.3 0 0 1 12-20.7 40.9 40.9 0 0 0 6.4-17.3l23.2-11.7 65.2-15 42.4 2.6-5.3 29.3-25 51-21.4 46.6-24.4 28.6-22.5 16.4Z" fill="#543e26" fill-rule="evenodd"/><path d="M1920.4 620.5s-25.5 31.5-32.6 36.4c4.5-9.7 32.6-67.5 42.8-83.6-2.3-1.8-5.3-1.8 1.8-30-6 14.2-8.2 21.7-13.2 25.5s-5.6 2.5-9 2.5a6.3 6.3 0 0 0 .7-3.8s-21.4-2.5-36-2.5-43.5 7.9-59.6 14.2c-12.7 5.3-19.8 5.3-24.4 8.7-4.5 3.8-7.1 7.9-9.4 9-1.8 1-10.5 3.7-12.4 6.6-1.9 3-4.9 6.4-4.9 7.1s-.8 1.8 1.5 1c.8-.2 6.4-3.3 12.8-7a350 350 0 0 1 26.7-13.9c21.7-8.6 28.5-7 38.2-9 10.1-1.8 24.7-6 34.4-6 9.7-.3 28 0 32.3.7-1.8 1.5-3.3 3.4-2.5 9.7 0 1.9-1.6 3.8-3 8.2a738 738 0 0 1-18 43.6c-6.7 14.2-14.3 26.2-18 33.6s-12 27-20.2 37.5-12.5 16.8-15 19.1-21 15.8-19.6 20.7c3.4-1.1 24.4-9 39.8-26.3s18.3-27.7 30.3-37.2 21.4-25.1 27-38.2c4.7-12.1 3.6-15.9 9.5-26.7Z" fill="#806031" fill-rule="evenodd"/><path d="M1371.1 856s-3.3 13.7-11 20.6c-7.4 6.6-20.6 12.4-22 23.6-1.9 11.2 13.1 16.9 13.1 16.9s-8.2 13.5-8.2 23.6c0 10.5-.3 12.5.8 22.5a9.8 9.8 0 0 0-3 3s.7 9.7 8.2 15.7 13.8 9.8 17.6 8.2a35.8 35.8 0 0 1 1.5 3.8s5.6-14.2 9.4-26.7c3.8-12.7 7.1-10.9 8.6-28s18-46.6 18-46.6l11.3-25.2-18.4-14.2-26 2.7Z" fill="#b6903c" fill-rule="evenodd"/><path d="M1405.2 880.6a108.9 108.9 0 0 0-10.4 12.5c-4.9 6.7-8.7 12.7-15.8 15.3s-11.7 2.6-11.2 9.7 7.1 10.2 10.9 13.8a17.8 17.8 0 0 1 5.6 17.3c2.3-1 6.4-2.3 10.2-10.4s30.3-58.1 30.3-58.1h-19.6Z" fill="#685026" fill-rule="evenodd"/><path d="M1509.8 765.5s2.3-6 0-10.5-16.1-6-23-11.2c-7-5.3-15.7-9-22.8-6.7 1-2.5 5.3-8.2 1.8-9.4-3.4-1-15.8 4.6-19.1 7.2s-11 5.6-12.5 7.4-4 5.3-5.6 3.8c-1.5-1-2.3-3.8-4.8-2.3s-15 11.7-17.3 17.6-7.5 19.1-23 34.2-22 24.7-17.5 30.3 6.6 1.5 7.4 6.4a41 41 0 0 1-.8 14.2c-1.8 8-4.8 15.3-.7 16.9 10.5 3.3 20.6-3 22.9-1.1 4.5 4-2.6 18.8 8.2 21.7 11 3 21.7-2.6 21.7-2.6l39.7-21.4 38.2-20.2 19.6-38.7-10.5-32.3-2-3.3Z" fill="#d4b968" fill-rule="evenodd"/><path d="M1472.3 857.9s-6.7-10.2 1.5-19.1 19.9-12.8 24.4-18.4a7 7 0 0 0-3.3-2.2 30.1 30.1 0 0 1 13.2-12.5c-2.3-2.3-5.3-4-8.7-4-7.4 0-12 4.5-18.8 4.5-6.6 0-7.4-3.4-7.4-3.4s11.2-1 10.2-6c-1.1-5.4-3-5.4-3-5.4s21.6-9 25.4-13.8 3.4-10.4 4.1-12.7c2.6 0 17.6-7.9 23.7-4.5s1.8 12.4 1.8 12.4 18.4-13.8 27.7-27.4c8.2.8 12-5.6 18-5.6 7.5 0 19.2 10.2 21.4 31.9 1.6 12.4 3.8 19.6 1.6 41.6a188 188 0 0 0 3 52.1c2.5 10.5 8.6 9.4 8.6 9.4a17 17 0 0 1-5.3 8.2c-4.1 3.8-4.6 13.8-4.1 17.6a73.1 73.1 0 0 0 2.3 8.2s-4.9 5.6-6.1 9.4c-1 3.8-6 6.4-9.7 6.4s-1.8-.3-6.7 0-6.4 1-9.4 0-5.3-2.3-4-12c1-9.7-37.6-32.3-37.6-32.3l-63-22.4Z" fill="#cca849" fill-rule="evenodd"/><path class="cls-65" d="M1400 953.8s13.7 18.3 70.5 18.3c27 0 36.4-2.6 42-4 6-1.6 28.8-10.5 51.7-37.5 20.6-24.5 16-34.5 16-34.5l-12-1.8-39 5.3-115.3 49.2-14 5Z"/><path class="cls-66" d="M1442.2 958.3s-49.1 11-49.1-20.1c0-30.4 30.3-62.2 38-67.9 7.8-5.6 26.6-12 26.6-12h45.4l8.6 23-3.8 49.4-65.7 27.6Z"/><path d="M1487.6 867.6s-9.4-8.6-30.8 3-38.7 36-39.7 58.1c-1.1 19.6 16 34.1 42.7 35a136 136 0 0 0 38-3l-9.4-11.8-.8-81.3Z" fill="#c3b378" fill-rule="evenodd"/><path d="M1478.3 872.5s-2.2-1.9-9 1.8c-5.6 3-13.8 10.9-20.1 16.5-4.1 3.4-6.7 4.9-9 7.4-9.4 11.3-17.3 29.6-12.8 38.7s19.6 19.6 57.8 12.5l-7-77Z" fill="#e6d89c" fill-rule="evenodd"/><path class="cls-66" d="M1466 891.3s-6.2 9.4-6.2 24.4c0 15.3 8.7 39.7 40.6 41.6 24.4 1.5 40.8-35.2 58.5-49.5 13.5-11 21.7-11.2 21.7-11.2s-13.8-15-50.7-34.5c-36.4-19.5-77.2-22.1-99.3 8 10.4-.8 44.3-9.5 44.3-9.5l16.5 5.3-25.5 25.4Z"/><path d="M1513.5 911.1c-1-2.2-1.8-5.3 2.6-6s6.4-.3 8 3 3 6 .7 7.4c-2.3 1.2-8.2 0-11.3-4.4Zm-7-21.4s-1.6 1.1-.9-1c.3-2.6 2.3-7.1 7.2-6s3.8 6.3 3 7.8-4.9 4.1-8 3a2.5 2.5 0 0 1-1.7-3 2.6 2.6 0 0 1 .3-.8Z" fill="#6f674d" fill-rule="evenodd"/><path d="M1095.8 899.5s12 9 26 8.6 31.5-14.6 39.7-23.7c4.8-5.3 9-10.9 13.5-15.3 3.8-3.8 6.3-5.6 8.2-8.2 2.5-3 5.3-8.6 6.6-10.5-3.3 2.6-8.2 7.2-13.2 10.2-4.8 3-15.3 8.7-19.5 10.2a1678 1678 0 0 0-46.6 24Z" fill="#ac924c" fill-rule="evenodd"/><path d="M1114.1 787.4s6.7-4.6 19.6-7.5c12.4-3 37.5-5.3 37.5-5.3l20.6 9 8.2 31.1-15 32.3-19.1 12-21.7-34.9-30-36.7Z" fill="#9f8e57" fill-rule="evenodd"/><path d="m1087.1 815.1-7.1 5.3s1.8-3.3 3.3-13.4 9.4-35 21-49.2 11.2-13.5 11.2-13.5a7.5 7.5 0 0 0-6 1.5c1.4-3.3 11.1-15.3 20.9-21.3s13.5-8 23.6-3 12.8 7.4 20.2 7 13.8-8.1 13.8-8.1 1.5 4.8-4 16-27.8 34.2-27.8 34.2l-46.2 31.5-23 13Z" fill="#eac970" fill-rule="evenodd"/><path d="M1121.2 783.6s33.4 4.5 43.6-4.9c.3 1 1.5 1 1.5 1.8a2.7 2.7 0 0 1-.8 1.6 23.3 23.3 0 0 1 3.4-.3 20.3 20.3 0 0 0 4 .7 25 25 0 0 0 3.4-.3 5.7 5.7 0 0 1-2.3 3.8c1.5 0 3 .3 3 1.5s.3 4.9-1.5 5.6a7 7 0 0 1-4.6-.3 18.8 18.8 0 0 0 2.3 8.2c3 5.6 9.4 12 18 10.2 0 0 4.5 10.9-14.6 35.2-2.5 3.3-5.3 7.9-8.6 11.7a43.8 43.8 0 0 0-3 9s32.3-12.5 41.6-40.9a214.3 214.3 0 0 0 9.4-82.8 42.6 42.6 0 0 0-3.4-16.5c-4.5-9.4-17.3-8-22.4-2.6-7.4 7.4-19.9 26-37.2 38.7-17.6 12.7-18.3 15-31.8 20.6Z" fill="#d7bc6b" fill-rule="evenodd"/><path class="cls-65" d="M1081.2 824.5s-6.4 3.8-9.7 18c-3.3 14.6 3 32.3 6.7 38s12 20.9 29.2 21.6a32.3 32.3 0 0 0 12.5-2.5 79.2 79.2 0 0 0 16.8-10.5c7.5-5.6 13.5-10.5 12.8-11-1.9-.7-45.8-37-45.8-37l-16.6-18.6-6 2Z"/><path d="M1122.8 884.9s9-.8 14.2-4-31-39.5-31-39.5l2.5 39Z" fill="#453a25" fill-rule="evenodd"/><path d="M1084 821.8s-4.5 8.6-4.5 11c-.7 7.3 1.5 30.7 3.4 38.1 1.8 8 11.6 20 24.4 20 7.9 0 18.8-5 18.8-6.2 0-1.5-11.2-3-14.3-8.6a51 51 0 0 1-3-18c-.3-4.8-.3-10.2 1.6-12 4-4.5 4.8-17.6 4.8-17.6l14.6-27h-19.2l-22.9 14.3Z" fill="#84754b" fill-rule="evenodd"/><path class="cls-66" d="M1078.5 830.1s15-19.8 28.5-24.4 19.6-1.8 19.6-1.8l-8 20.2-11.2 12.4.8 6.4s-1.8 16.8 9.4 28.5 19.6 11.2 24.4 11.2 18.8-4 26-21c6.3-15.7 11.7-36-1-56.2-12.5-20.2-34.5-21-38.8-21s-37.6 1.7-49.7 45.7Z"/><path d="M1463.6 897.6c-5.6-2.5-.3-18.3 5.3-23.2s12.8-10.4 25.2-11.2c4.6-.3 9 2.6 8.2 5.6-1 5.6-9 13.5-16 19.1-10 7.8-16.3 12.6-22.7 9.7" fill="#f7f7e7" fill-rule="evenodd"/><path d="M1160.2 811.6c4.1-.3 9.4 3 10.5 7.5 1 4.8-2.6 14.5-10.5 14.5-6.3 0-9.7-7.9-9.7-10.1a11.5 11.5 0 0 1 1.5-5.3c.3-.5 1.1-5.8 8.2-6.6" fill="#f8f6de" fill-rule="evenodd"/><path d="M1101 815.1s-10.4 4.9-15.3 15a39.7 39.7 0 0 0-3 24c.8 3.8 4.6 13.2 7.2 16.5s6 5.7 8.6 5.4 8-7.2 8-11.3.2-21.4 5.2-30.8c4.4-9.4-10.6-18.8-10.6-18.8Z" fill="#d4c38b" fill-rule="evenodd"/><path d="M1102.6 814.4c-1.8 1-4.9 2.5-4.1 4.5s7.1 3 9.4 7.4c2.6 4.6 2.6 9.5 1.8 11.7a18.7 18.7 0 0 0 5.3-3.8c3.4-3.8 7.5-9 11-9 2.2 0 4.5 1.1 6.6 1.1 3.4 0 6.7-1 7.2-4.5.7-4.5-6.4-8.7-10.5-7.9.8-3 1.8-7.4-1.5-10.5s-13.8 2.3-16.1 3.8-9.1 7.2-9.1 7.2Z" fill="#e2d59d" fill-rule="evenodd"/><path d="m1343.6 1133 22.5-6.6 6.4 4.6s4.5 9.7 11.6 11c-2.2 4.8-8.2 9-7.8 12.4s3.3 6 3.3 6-20.2 33.4 19.6 67a630 630 0 0 0-27.8 12c4.5 1 14.2 3 18.3 6.7s4.1 4.9 8 7.1 6 5.3 5.2 6.7c-2.5-1.5-11.2-6-12.7-1.8s-37.5 2.6-37.5 2.6l-60.6 11.7s2.2-6.1-4.1-11.7c-7.5-6.7-16.6.3-26.3-7.2-12.7-9.7-13.2-20.9-17.3-25.1 4.1-2.6 12.5-6.4 32.3-9-.7-1.6-3.3-6.1-1.8-10.2 1.8-5.3 9.4-8.7 7.1-15 3.4-.8 4.9-.8 13.2-11.2 8-10.5 12.8-12.8 18.9-13.5s9.7 0 20.9-10.5c7.9-7.4 5.3-13.8 5.3-13.8s5.2-1.7 3.3-12.1Z" fill="#cbac5a" fill-rule="evenodd"/><path d="M1277.3 1136.5c.3-1.6 1.6-2.3 9.8-1.6s60-4.8 74.1-5.6c14.3-1 64.5-.3 89 4.9s49 11.2 61 14.2c12 3.4 15.9 4.6 15.4 6-.3 1.6-3 3-4.6 2.7s-41.2-12.5-53.5-15-54.8-9.4-78-9c-21.7.3-30.3-.3-48.7 1.8-18.3 2.3-48.7 5.3-57.8 4-9-1-7.1-1-6.7-2.5Z" fill="#d6bc6f" fill-rule="evenodd"/><path d="M1399.5 1255.3s31 16.9 42.3 37.5c8.2 15.3-4.9 23-4.9 23s17.6 0 15.4 9.6c-1.1 6-30.4 22.5-50 31.1-19.8 8.7-19 8.2-28.8 9.7-9.4 1.5-35.2-3-40.5 4.6s-3 15.3-1.5 16.5 13.8 2.6 13.8 2.6-2.6 7.1-28 7.9-32 2.6-33.4 5.3c-1.6 2.6 4.8 1 16.5 3s28 3 28 3-5.2 4.6-19 8.2c-15.8 4-40.6 7.9-48 12.4 3.8 2.6 9.4 6.4 12 6.7a76 76 0 0 0-16.8 6c2.3 1.6 5.3 3.4 5.3 3.4s-12.8 15.3-20.2 19.1-50.2 23.7-65 19.9c-36.6-9.7-41.2-49.9-50.1-53-13.5-4.5-19.9 4.6-31.9-1.8 5.3-3.8 8.2-6 13.8-8.6-6-3-37.5-23-37.5-23a235 235 0 0 0-10.9-20.9c-6-10.4-15-24.4-21.7-36.7-14.5-27-15.3-39.4-28.5-54.7 2.3-3 10.2-2.6 10.2-2.6l110.6 36.4 196 5.7 51-72.8 21.8 2.6Z" fill="#dfc677" fill-rule="evenodd"/><path d="M1109 1366.4a17.1 17.1 0 0 0 4 3.3c3.9 2.6 9.5 5.6 13.3 10.2 1.5-2.3 5.3-6.4 12 0s15 1.8 20.2 3.3c5.3 1.8 5.6 2.6 5.6 2.6s3-2.6 9.7-5.3c4-1.5 9-2.6 14.2-4 4.9-1.2 10.2-2.7 13.8-2.7 3.4 2.3 15.4 15 63.5-3.8 45.3-17.6 55.8-19.5 63.4-16.8.7-1.8 1.5-5.3 13.2-4.9 0-4.8-9.7-21.3-9.7-21.3l-53.6-18.4h-29.3l-87.8 16-48.7 27.9-3.8 14Z" fill="#c4a859" fill-rule="evenodd"/><path d="M1079.7 1335.6s1 8.2 13.2 16.8 15.8 13.8 15.8 13.8 2.2-3 4-6c1.9-3.4 3.4-7.2 6.4-8.2 6-2.6 19.9 2.3 23 1.5 2.5-.8 1.8-6 4.5-6 6.4-.3 10.4 4 12.7 4s7.9-.2 8.7-1.4 1-13.9 9.7-20a26 26 0 0 1 24-2.2c0 2.3.3 7.9 6.3 8.2s6.7-.8 12 1 11.7-.2 14.6 8.7c2.6-.8 8.7-1.5 7.1-10.2 3-2.2 5.6-3.8 12-12.7 1.5-2.3 4.1-4.9 6.1-8.2 5.3 0 11.7-1 20.2 6.4-2.6 1.8-4.1 3-4.9 4.8a54.3 54.3 0 0 1 6 7.2c2.4 3 3.9 6.6 6.8 7.4 6.3 1.8 16.8-.8 28.5 0 11.2.8 20.6 4.8 24.7 7.4 1.5-.7 1.5-1 5.3-.3s6.7 1.1 2.6-3.8c2.3 1.1 4.8 3.4 7.1 1.1s4.1-5.6 10.5-6.4 8.6.3 11.2-6.3c3.4-8.2-8.2-8.2-8.2-8.2s5.3-4.9 11.3-11.3c7-6.6 15.3-15.3 17.3-25.9 3.3-19.6-15.8-22.1-15.8-22.1l-92.7 28.5-113.3-5.6-96.7 48Z" fill="#927d49" fill-rule="evenodd"/><path class="cls-85" d="M996.4 1067.8s-3 3.8-4.8 12.8-1.1 7.9-2.6 14.3-20.2 69.7-13.2 91.1 19.1 29.3 26.7 46.6c1.5 3.8 3 6 3.8 9.4 2.5 11.2.3 19.9 3.3 31.1a33 33 0 0 0 7.9 12.7c9 9.4 23.7 18.4 30 24.8 9 9.4 21.7 28.5 38 30.3 8.6 1 20.9-2.6 31-8.6 9-5.7 14.6-13.5 24-18 6.7-3.4 13.8-4.6 20.2-6.1 13.2-2.6 25.2-3 32.3-1.5 11 2.2 36.7 10.1 51 10.1a138.9 138.9 0 0 0 33-4.5c21.8-6.4 48-17.3 65.3-22.2 10.2-3 18.4-3.8 26.7-5.6 14.3-3.3 26.2-7.9 33-16.5-4.5-5.3-10-13.5-40.4-13.2-34.5.8-74.2 19.9-93.8 22.9s-28 5.6-49.9-2.3c-21.4-8-22.1-13.2-22.1-13.2s-22.5-15.7-32-55.8 0-69.4 24.5-97.1c6.4-7.2 4.9-13.5 4.9-13.5s16-21.7 11.6-42c-4.8-20.2-36-16.1-36-16.1l-172.4 30.2Z"/><path d="M1022.3 1135.4a15.6 15.6 0 0 0-1.8 8.1c.3 4.1 1.5 9.4 13.8 21.4 10.5 10.5 8.2 22.2 8.2 22.2s5.3 1 19.6-5.6c11.2-5.4 15 4 15 4a31.6 31.6 0 0 1 10.5-3.3 23 23 0 0 0 9.4-3s13.2 13.5 24.7 19.9c10.5 5.6 16.5 9.4 21.7 5.6 4.8-3.3 4.8-10.2 4.5-13.2a39.6 39.6 0 0 0-4.5-7.9c-3.4-4.9-8.7-10.5-9-15-.8-10.5 7.9-22.9 6-26s-8.6-3.7-25.4 2.3c-17.5 5.8-92.7-9.5-92.7-9.5Z" fill="#39331f" fill-rule="evenodd"/><path d="M1062 1203.2s-8.6-8.2-5.5-48a48.9 48.9 0 0 1 10.9 1s4.7 30.9-5.3 47" fill="#292311" fill-rule="evenodd"/><path class="cls-66" d="M1000.5 1037.5a25 25 0 0 0 3.3-3c-3 5.6-16.8 28-5.6 63.4 11.2 35.2 39.5 61.4 74.2 62.7s53-15.8 73.9-41.3c8.2-10.1 17.6-22.9 26-31.5 12.4-13.5 22-17.3 22-30.4 0-26.7-27.2-38.7-67.4-50.6s-76.5-10.5-95.3-2.3c-18.4 8.9-26.2 18.3-31.1 33Z"/><path d="m1129.6 1215.2 3-1.6s.7-12 5.6-11.6c4.8.7 7.1 7 6.7 9.4-.3 2.2-1.5 6-6.4 5.6-6.4.1-9-1.8-9-1.8Z" fill="#3f3824" fill-rule="evenodd"/><path d="M1116 1164.2s3-1 6.8 2.6c3 0 16-1.6 20.1 1s5.3 4.9 5.3 4.9-15.3 3.3-23.6 0c-8.5-3-8.5-8.5-8.5-8.5" fill="#2d2815" fill-rule="evenodd"/><path class="cls-90" d="M1183.6 1166.5c0-.8-8.2-6.4-16.8-8.2-1.6-.3-1.9.7-3 .7-.8-.3-1.1-2.6-1.1-2.6l-5 2.6s-.7 1 1.9 3c2.3 1.8 6 3.4 7.1 6.4s1 4 1.5 4.5c.3.3 5.7 0 8.2-1.5s7.5-4 7.2-5Z"/><path d="M1107 1197.3s1.5-10.5 11.7-11c10.4-.7 12.4 9.4 12.4 9.4l-6 6.1c0-.1-4.6-6.5-18-4.5Z" fill="#2d2816" fill-rule="evenodd"/><path class="cls-92" d="M1173 1152.2s-5.6 6-18 7.9c-1-1.5-3.3-4.6 0-9.4s7.1-6.4 11-4.9a8.9 8.9 0 0 1 7 6.4"/><path class="cls-90" d="M1195.9 1159.6c.3-1.5-.8-1.8 0-2.5s4.8-2.3 5.6-1.6c.3.3 0 1.6 0 3s0 3-.8 4.1c-1 1.5-4 2.3-5.6 1.9s-1.8-2.6-1.8-3c.8-.3 2.6-1.1 2.6-1.9m25.9-16.3c0-.8 2.6-2.3 4-2.3 2.4 0 2.4 1.8 2.7 2.3.7.3.7-.4 1.5 1s1.8 3.8 1 5.3-3.8 2.6-4.5 2.3c-1-.8-4.4-7.6-4.7-8.7"/><path class="cls-85" d="M1169.6 1163.1s3.4.8 8 4.6l-3.9 2.2s-.3-3.5-4-6.8Z"/><path class="cls-65" d="M1162.2 1129.7c-.8-.7 2.3-2.5 4.1-2.2s2.6 1.5 4.5 1.8 2.3-.8 3-1.5 3.4-.3 3.8 0a8.1 8.1 0 0 1 .8 1 4.2 4.2 0 0 1 1.5-3 4.8 4.8 0 0 1 4.1-.7c.3 1 1.8 4.8 1.5 5.6s-4.8 1.8-5.6 1c.8 1.9 4.1 5.7 4.6 6.4s-3.4 2.6-4.9 2.3a61.9 61.9 0 0 1-17.4-10.6Zm19.9-25.1a3.5 3.5 0 0 0-1.5-1.9c-1.1-.3-4.6 0-4.6 1.9s3 12 6.4 17.3c3.8 5.3 6.3 9.7 9 10.9a3.5 3.5 0 0 0 4.5-1.5c.3-.8 1-6.4.7-19.6s-.7-26-1.5-26.7-3.8-.8-4.8.8-8 16.5-8.2 18.8Z"/><path class="cls-92" d="M1168.6 1182.2s-5.3-3.3-10.5-1c-4.8 2.3-4.5 11.2-4.5 11.2a7.2 7.2 0 0 0 6.6-.8c3.4-2.2 7.6-6 8.4-9.4Z"/><path class="cls-90" d="M1178.6 1194.2c-.3-3-3-3-3-4.5a3.4 3.4 0 0 1 3.3-2.6c1.5 0 3 1.8 4.9 3s4.5 3 4.8 5.3-3 8.6-6.6 8.6-2.6-6.8-3.4-9.8Zm29.3-4s-6.1 1.7-5.7 0 1.9-2.3 3.8-2.3a6 6 0 0 1 3.8-1.9 3.3 3.3 0 0 1 2.3.8s4.1-1.8 5.3-.8.3 1 1 2.3a10.8 10.8 0 0 1 2 4.6c0 1.2-4.6 3.7-8.3 3.3-4.2-1-3.5-5.3-4.2-6m35.3-7s1.8 1.2.3 2.4c-1 1-6.4 3-11 3.3-4.5 0-8.6.8-8.6-.8s3.8-4.5 6.1-5.3a4.8 4.8 0 0 1 3.8-1.8c1.8 0 9-.7 11-1 1.7-.3 3.3.7 2.2 2.2-.5 1-3.8 1-3.8 1m10.5-46.7s-2.3 4.8-4.9 4.8c-2.6-.3-2.6-1-2.6-1.8 0-1 2.6-3.8 2.3-4.6-.7 0-2.6 0-2.3-1.8 0-1.5 2.6-3.3 4.9-3a10 10 0 0 1 6-2.3c2.6 0 5 .8 5 2.3s-3 4.9-4.2 5.6c-1.2 1.2-2.7 2-4.2.8ZM1219 1226s-3 .3-3 1.8c0 .8.7.8 1.8.3a8.2 8.2 0 0 0 1.8-.3c.3.3.3 1.8 2.6 1.8a14.6 14.6 0 0 0 5.3-1.8c1.8-.7 3.4-1.5 3.4-3-.8-2.6-2.3-3.8-4.6-3.8a6 6 0 0 0-3.3.8s-.8-1.5-3.4 0-2.3 1.5-1.5 2.3c1.4 1.2 1 2 1 2Zm-17.1 15.8c0-.8 3.8-2.3 4.8-1.8 1.1.3 4.1 6 4.1 6.6s-3.8 2.6-5.3 2.6-4-2.6-4-3 1.8-.7 1.8-1c.4-.8-1.4-2.6-1.4-3.4Zm-12-22.2c.8-.3.8-1 1.8-1.8a2.6 2.6 0 0 1 2.3-.3 3.7 3.7 0 0 1 2.6-1.8c1.8-.3 3.3 0 3 .7 0 2.3 1.5 3.8 1.5 5.6s-1 4.1-4.9 5.7c-3.7 1-9 1-9.7.7s-1.5-3.3-.7-4.8a12.7 12.7 0 0 1 4-4Z"/><path class="cls-85" d="M1194.8 1220.8s-2.6 1.5-2.6 2.2a6.7 6.7 0 0 0-.3 2.3c0 .5 3.3-.3 3.8-.8.1-.3-1-3-1-3.7"/><path class="cls-65" d="M1172.2 1213.6c1.5.3 4.1 0 6 .8 1.6.8 2.7 2.3 1.1 4s-3 4.6-6.3 4.2c-3.8-.3-7.5-2.3-7.5-3.8a7.2 7.2 0 0 1 1.9-5.3c1.5-1.2 2.2-.5 4.8.1Z"/><path class="cls-92" d="M1170.4 1215.2s-4.8 3.7-6 5.6c-1.6 1.8-9 11.2-11.3 13.2a27.1 27.1 0 0 1 2.6-3.8 15.5 15.5 0 0 0-6.4 8.2c-1.8 5.6 10.2 8.6 18 10.9s11 3 11 3a85.8 85.8 0 0 1-7.5-13.8c-3-7.1-4.5-8-2.6-11.2 1.5-3.4 3.8-5.6 3.8-8.2l-1.6-4"/><path class="cls-66" d="M997.5 1227.1a9 9 0 0 0 3.3 0c2.3-.3 26-9 50.7-7.4a270.2 270.2 0 0 1 54.7 9c31.1 8.2 69.8 24.4 94.8 33.7 6.7 2.6 13.2 7.1 18 9 19.2 7.4 20 7.4 31.1 9.4 13.2 1.8 26.7-2.6 40.8-5.6 17.3-3.8 47-5.7 72.9-9.4a148.5 148.5 0 0 0 24.7-5.6s-20.6 20.6-70.1 28a219.2 219.2 0 0 1-60.4.8 184.4 184.4 0 0 1-34.1-6.1c-9-2.6-27.3-9.4-50-15-15.7-4.1-33.3-7.1-53.5-11-49.7-9-103.7-19.5-123-29.6Z"/><path class="cls-4" d="M941.6 1133.4a864.3 864.3 0 0 1-37.1 29.3l-37.5 28.8-38 28.5a676.7 676.7 0 0 1-39 27c12-10.2 24.8-19.6 37.5-28.8s26-18.4 38.3-27.7l37.5-28.9c12.8-9.4 25.3-19 38.3-28.2Zm-66.3 106.2s13.5-11.2 30.4-27c21-19.6 46.6-44.6 54.7-49.2l-85 76.2Z"/><path class="cls-4" d="M875.3 1239.6c6.7-6.7 13.9-13.2 21-19.6l10.9-9.4c3.3-3 7.1-6.4 10.5-9.7 6.6-6.7 13.2-13.8 19.8-20.7a126.5 126.5 0 0 1 10.5-9.7 28 28 0 0 1 6-4c1.9-1.1 3.9-3 6.4-3.4-1.5 2.3-3.3 3.3-4.8 5.3-1.8 1.5-3.3 3.3-4.9 4.9-3.3 3.3-7 6.3-10.4 9.4-7.2 6-14.6 12-21.7 18.3s-13.8 13.2-21 19.6c-7.7 6.5-14.8 12.9-22.3 19Zm90.8-60.7s-49.5 48.4-59.7 56.3Z"/><path class="cls-4" d="M966 1178.9a162.2 162.2 0 0 1-14.2 14.6l-15 14.2c-4.9 4.9-9.4 9.7-14.6 14.6-5.3 4.5-10.1 9-15.8 13.2l14.6-14.3c4.9-4.8 10.2-9 15.3-13.8l14.6-14.3c5-5 9.9-9.8 15.2-14.2m2.2 26.2a316.5 316.5 0 0 1-16 37.2c-12.8 25.5-31.9 57.3-40.3 73.6Z"/><path class="cls-4" d="M968.3 1205.1c0 5.6-1.5 10.5-3.3 15.4a151.7 151.7 0 0 1-6 14.2c-2.3 4.6-5 9.4-7.5 13.8s-5.6 9-7.9 13.5l-15.3 27c-5.3 9-10.5 18-16.1 26.7 3.8-9.7 9-18.8 13.8-27.7 5.3-9 10.2-18 15-27.3a155.1 155.1 0 0 0 6.4-14.3c2.2-4.8 4.5-9.4 6.3-13.8 2.3-4.8 4.1-9.4 6.4-13.8 2.6-4.7 4.7-9.2 8.2-13.6Z"/><path d="M1022.3 1329.5s-15 19.9-13.5 45c4.1-13.2 9.3-33.3 13.5-45m14.3 20s-5.3 54-9.7 80.5c6.2-30.7 7.4-28.1 9.7-80.5m99.4 83.7s-22.5 66-23 84.3c5-18.8 14.3-57.4 23-84.4Z" fill="#dec270" fill-rule="evenodd"/><path d="M1188.5 1325.5s36.4 60 63.7 111.3c-7.4-25.8-24.4-73.1-63.7-111.3" fill="#cbaf59" fill-rule="evenodd"/><path d="M1286.3 1413.9a1102.7 1102.7 0 0 1 54 109c-3-25.7-11.2-69.9-54-109" fill="#e3c677" fill-rule="evenodd"/><path d="M1574 1502.5c6-3.8 18-24.5 28.4-29.6 10.5-5.3 18.4-6.4 27.8-16.9 9.4-10.9 12-17.6 32.6-26.2 28.8-12.5 9-28.5 9-28.5a92 92 0 0 1 10.2-8.7c7.4-5.6 16-12.4 15.3-24.4-1-20.2-4.8-49.5-21.4-66.4 16-3.4 46.9-5.7 66-10.5 22.1-5.6 32.3-13.5 32.3-13.5s-12.7-21.7 8-43.5 37.4-35 49.8-59.4c-14.2-1.8-36-9.4-91.5 11.7a68 68 0 0 1 8.7 4.9s-34.1 9.4-46.6 19.8c-21.7 18.4-24.4 33.4-48 44.6s-47.1 8.2-66.7 17.3-22.4 16.9-29.6 20.2c1.6 1.8-.2 4.9 2.6 7.4-1.8 2.6-12.4 20-23.2 20 1 4 10.2 7 10.2 7s-6.7 4.9-23.7 6.1c8.7 9 16.9 18.8 39.5 33-1.9 3.9-9.4 9.5-6.4 16.6 3.3 7.1 12 16.9 46.6 24.7-17.6.8-38.3 4.9-66 1.1-27.8-3.3-32.3-5.3-49.5-1 1.8 1.8 6.7 1.8 11 6.6-4.6.3-33.1-3.3-42.8 9.4a82.7 82.7 0 0 0-13.8 49.5c-5.4 2.6-10.5 7.1-8 16.5s16.1 12.5 24.8 18.4c8.6 6.3 9.4 8.6 17.6 7.1 8.6-1.8 21.4-10.5 28.8-10.5s12.7 5.7 12.7 5.7 20.2-9.8 22.2-8c1.8 1.9.3 13.6 2.3 15.4 2 1.3 24.7-12.2 30.8-16Z" fill="#ecd592" fill-rule="evenodd"/><path d="M1634.8 916.6a37.7 37.7 0 0 1-37.7 37.7h-44.5a27.8 27.8 0 0 1-27.7 25.2h-122.8a27.8 27.8 0 0 1-8-54.4 37.7 37.7 0 0 1 36.6-46.2h166.4a37.7 37.7 0 0 1 37.7 37.7Zm-409.7-76.9a32.1 32.1 0 0 1-32.1 32h-38a23.7 23.7 0 0 1-23.5 21.6h-104.7a23.7 23.7 0 0 1-6.9-46.4 32.1 32.1 0 0 1 31.3-39.3H1193a32.1 32.1 0 0 1 32.1 32Z" fill="#fffffd"/><path d="m1904.7 884.2-4.1 34.4 68.4 9.7-4.5 38.2q-35.2-4.5-70.2-11a180.5 180.5 0 0 1 2.4-35.5L1704 892.6a179 179 0 0 1-6 35 310.2 310.2 0 0 1-34.4-3.9 160.9 160.9 0 0 1-5.8 33.2 248.4 248.4 0 0 1-30.7-3.4l-4.1 34.4-36-5.2-4.1 34.4-241.5-34.3 4-34.3-34.1-5 4-34.3-34.2-4.8q2.6-18.1 3.4-36.4a250.6 250.6 0 0 1-61.2-8.7q-3.5 17.9-5.3 36.1l-34.2-4.9-4.1 34.4-238-33.8 4.1-34.3-37.8-5.4q2.6-18 3.4-36.4a107.7 107.7 0 0 1-28.1-2l8.7-72.5ZM1626 914.5l-30.6-4.3 3.9-32.5 30.6 4.4Zm-64.9-9.2-30.6-4.3 3.9-32.5 30.6 4.4Zm-374.8-53.2-30.6-4.3 3.8-32.5 30.7 4.4Zm-68.5-9.7-30.6-4.4 3.9-32.5 30.6 4.4Zm471.7 101.9-30.7-4.3 4-32.5 30.6 4.4Zm-66.7-9.5-28.8-4 3.8-32.5 28.9 4Zm-373-53-30.7-4.3 4-32.5 30.6 4.4Zm-70.3-10-28.8-4 3.9-32.5 28.8 4ZM1553 974.1l-30.6-4.4a292.4 292.4 0 0 1 4.7-32.3 60.5 60.5 0 0 0 29.8 4.2Zm-66.7-9.5-30.6-4.4a295 295 0 0 1 4.8-32.3 60.6 60.6 0 0 0 29.7 4.2Z" style="isolation:isolate" fill-rule="evenodd"/></svg>