<svg id="Layer_1" data-name="Layer 1" xmlns="http://www.w3.org/2000/svg" viewBox="0 0 250 100"><title>logo-light</title><text transform="translate(43.47 75.69)" style="font-size:60.457618713378906px;font-family:BillionDreams, Billion Dreams">Memeify</text><rect x="130.35" y="22.98" width="17.22" height="9.47" rx="4.73" transform="matrix(0.93, -0.37, 0.37, 0.93, -0.26, 54.12)" style="fill:#fff"/><rect x="97.73" y="16.74" width="14.46" height="7.95" rx="3.97" transform="translate(-1.8 13.71) rotate(-7.41)" style="fill:#fff"/><path d="M168.92,24.37l-.33,2.79,5.56.79-.37,3.1c-1.91-.25-3.8-.54-5.7-.89a14.79,14.79,0,0,1,.2-2.89l-15.66-2.22a14.93,14.93,0,0,1-.49,2.84,25.87,25.87,0,0,1-2.79-.31,13.4,13.4,0,0,1-.47,2.69,19.12,19.12,0,0,1-2.5-.28L146,32.78l-2.93-.41-.33,2.79-19.62-2.79.34-2.79-2.78-.39.33-2.79-2.78-.4c.14-1,.23-2,.28-2.95a20.43,20.43,0,0,1-5-.71,28.89,28.89,0,0,0-.42,2.94l-2.79-.4L110,27.67,90.71,24.93,91,22.14,88,21.7a29.14,29.14,0,0,0,.28-2.95A8.88,8.88,0,0,1,86,18.58l.71-5.89ZM146.3,26.83l-2.49-.35.32-2.64,2.49.35ZM141,26.08l-2.49-.35.32-2.64,2.49.36Zm-30.44-4.32-2.49-.35.32-2.64,2.48.35ZM105,21l-2.49-.35.31-2.64,2.49.36Zm38.3,8.28-2.48-.36.31-2.63,2.49.35Zm-5.41-.77-2.34-.33.31-2.64,2.34.33Zm-30.3-4.3-2.49-.36.32-2.63,2.49.35Zm-5.71-.81L99.57,23l.32-2.63,2.34.33Zm38.46,8.29-2.49-.35a23,23,0,0,1,.39-2.62,5,5,0,0,0,2.41.34ZM135,30.89l-2.49-.35a23,23,0,0,1,.39-2.62,5,5,0,0,0,2.41.34Z" style="fill-rule:evenodd;opacity:0.9639999866485596;isolation:isolate"/></svg>